<svg xmlns="http://www.w3.org/2000/svg" xmlns:xlink="http://www.w3.org/1999/xlink" id="Layer_1" x="0" y="0" version="1.1" viewBox="0 0 117 122.4" xml:space="preserve" style="enable-background:new 0 0 117 122.4"><style type="text/css">.st0{stroke:#9e62dd}.st0,.st1,.st2{fill:none;stroke-width:1.5;stroke-linecap:round;stroke-linejoin:round}.st1{stroke:#9e62dd;stroke-dasharray:0,2.7498,2.7498,9.1659}.st2{stroke-dasharray:13.7489,6.4161,0,2.7498,2.7498,9.1659}.st2,.st3,.st4{stroke:#9e62dd}.st3{fill:none;stroke-width:1.5;stroke-linecap:round;stroke-linejoin:round;stroke-dasharray:0,3.2001,3.2001,9.6002}.st4{stroke-dasharray:12.8002,6.4001,0,3.2001,3.2001,9.6002}.st4,.st5,.st6{fill:none;stroke-width:1.5;stroke-linecap:round;stroke-linejoin:round}.st5{stroke:#9e62dd;stroke-dasharray:0,2.6329,2.6329,8.7761}.st6{stroke-dasharray:13.1643,6.1433,0,2.6329,2.6329,8.7761}.st6,.st7,.st8{stroke:#9e62dd}.st7{fill:none;stroke-width:1.5;stroke-linecap:round;stroke-linejoin:round;stroke-dasharray:0,2.9038,2.9038,8.7114}.st8{stroke-dasharray:0,2.9219,2.9219,8.7656}.st10,.st11,.st8,.st9{fill:none;stroke-width:1.5;stroke-linecap:round;stroke-linejoin:round}.st9{stroke:#9e62dd;stroke-dasharray:0,3.0056,3.0056,9.0168}.st10,.st11{stroke:#6738b8;stroke-miterlimit:10}.st11{stroke:#28d1b1}</style><g id="XMLID_12_"><g id="XMLID_17_"><g id="XMLID_52_"><line id="XMLID_56_" x1="42.3" x2="50.7" y1="18.9" y2="18.9" class="st0"/><line id="XMLID_55_" x1="55.2" x2="62.3" y1="18.9" y2="18.9" class="st1"/><path id="XMLID_54_" d="M65.4,18.9c3.9,0.5,8.3,3.2,10.1,6.4l4.4,7.6" class="st2"/><line id="XMLID_53_" x1="81.6" x2="85.8" y1="35.8" y2="43" class="st0"/></g></g><g id="XMLID_16_"><g id="XMLID_47_"><line id="XMLID_51_" x1="12.5" x2="9" y1="85.4" y2="79.3" class="st0"/><line id="XMLID_50_" x1="6.7" x2="2.8" y1="75.5" y2="68.7" class="st3"/><path id="XMLID_49_" d="M1.4,65.7c-1.1-3.5-0.8-8,0.9-11l5-8.6" class="st4"/><line id="XMLID_48_" x1="9" x2="12.5" y1="43.1" y2="37.1" class="st0"/></g></g><g id="XMLID_15_"><g id="XMLID_42_"><line id="XMLID_46_" x1="85.8" x2="81.6" y1="79.4" y2="86.6" class="st0"/><line id="XMLID_45_" x1="79.4" x2="76.1" y1="90.3" y2="96.2" class="st5"/><path id="XMLID_44_" d="M74.3,98.7c-2.4,2.8-6.6,4.8-10.1,4.8h-8.8" class="st6"/><line id="XMLID_43_" x1="52.3" x2="44" y1="103.5" y2="103.5" class="st0"/></g></g><g id="XMLID_10_"><g id="XMLID_25_"><g id="XMLID_36_"><g id="XMLID_37_"><g id="XMLID_38_"><line id="XMLID_41_" x1="47.4" x2="54.4" y1="61.2" y2="61.2" class="st0"/><line id="XMLID_40_" x1="58.4" x2="65.6" y1="61.2" y2="61.2" class="st7"/><line id="XMLID_39_" x1="68.6" x2="75.6" y1="61.2" y2="61.2" class="st0"/></g></g></g><g id="XMLID_31_"><g id="XMLID_32_"><line id="XMLID_35_" x1="32.6" x2="36.2" y1="37.1" y2="43" class="st0"/><line id="XMLID_34_" x1="38.4" x2="42.1" y1="46.5" y2="52.6" class="st8"/><line id="XMLID_33_" x1="43.7" x2="47.4" y1="55.3" y2="61.2" class="st0"/></g></g><g id="XMLID_26_"><g id="XMLID_27_"><line id="XMLID_30_" x1="33.2" x2="36.7" y1="86.2" y2="80.1" class="st0"/><line id="XMLID_29_" x1="38.8" x2="42.3" y1="76.5" y2="70" class="st9"/><line id="XMLID_28_" x1="43.9" x2="47.4" y1="67.3" y2="61.2" class="st0"/></g></g></g></g><g id="XMLID_9_"><path id="XMLID_24_" d="M14.9,37.1c-1.8,0-4-1.3-4.9-2.8L2.7,21.7c-0.9-1.5-0.9-4.1,0-5.6L10,3.5 c0.9-1.5,3.1-2.8,4.9-2.8h14.5c1.8,0,4,1.3,4.9,2.8l7.3,12.5c0.9,1.5,0.9,4.1,0,5.6l-7.3,12.6c-0.9,1.5-3.1,2.8-4.9,2.8H14.9z" class="st10"/></g><g id="XMLID_8_"><path id="XMLID_23_" d="M15.8,121.6c-1.8,0-4-1.3-4.9-2.8l-7.3-12.5c-0.9-1.5-0.9-4.1,0-5.6l7.3-12.5 c0.9-1.5,3.1-2.8,4.9-2.8h14.5c1.8,0,4,1.3,4.9,2.8l7.3,12.5c0.9,1.5,0.9,4.1,0,5.6l-7.3,12.5c-0.9,1.5-3.1,2.8-4.9,2.8H15.8z" class="st10"/></g><g id="XMLID_7_"><path id="XMLID_22_" d="M84.1,76.6L76.9,64c-0.9-1.5-0.9-4.1,0-5.6l7.2-12.6C85,44.3,87.2,43,89,43h14.5 c1.8,0,4,1.3,4.9,2.8l7.2,12.6c0.9,1.5,0.9,4.1,0,5.6l-7.3,12.5c-0.9,1.5-3.1,2.8-4.9,2.8H89C87.7,79.3,85.5,79,84.1,76.6z" class="st10"/></g><g id="XMLID_6_"><path id="XMLID_21_" d="M17.8,29.8c-1,0-2.4-0.8-2.9-1.7l-4.3-7.6c-0.6-0.9-0.6-2.4,0-3.4l4.3-7.6 C15.4,8.7,16.7,8,17.8,8h8.7c1,0,2.4,0.8,2.9,1.7l4.3,7.6c0.6,0.9,0.6,2.4,0,3.4l-4.3,7.6c-0.6,0.9-1.8,1.7-2.9,1.7H17.8z" class="st11"/></g><g id="XMLID_5_"><path id="XMLID_20_" d="M18.7,114.4c-1,0-2.4-0.8-2.9-1.7l-4.3-7.6c-0.6-0.9-0.6-2.4,0-3.4l4.3-7.6 c0.6-0.9,1.8-1.7,2.9-1.7h8.7c1,0,2.4,0.8,2.9,1.7l4.3,7.6c0.6,0.9,0.6,2.4,0,3.4l-4.3,7.6c-0.6,0.9-1.8,1.7-2.9,1.7H18.7z" class="st11"/></g><g id="XMLID_4_"><path id="XMLID_19_" d="M91.9,72.1c-1,0-2.4-0.8-2.9-1.7l-4.3-7.6c-0.6-0.9-0.6-2.4,0-3.4l4.3-7.6 c0.6-0.9,1.8-1.7,2.9-1.7h8.7c1,0,2.4,0.8,2.9,1.7l4.3,7.6c0.6,0.9,0.6,2.4,0,3.4l-4.3,7.6c-0.6,0.9-1.8,1.7-2.9,1.7H91.9z" class="st11"/></g><g id="XMLID_3_"><path id="XMLID_14_" d="M20.6,22.5c-0.3,0-0.8-0.3-1-0.6l-1.5-2.5c-0.2-0.3-0.2-0.8,0-1.1l1.5-2.5 c0.2-0.3,0.6-0.6,1-0.6h2.9c0.3,0,0.8,0.3,1,0.6l1.5,2.5c0.2,0.3,0.2,0.8,0,1.1l-1.5,2.5c-0.2,0.3-0.6,0.6-1,0.6H20.6z" class="st10"/></g><g id="XMLID_2_"><path id="XMLID_13_" d="M21.6,107.2c-0.3,0-0.8-0.3-1-0.6l-1.5-2.5c-0.2-0.3-0.2-0.8,0-1.1l1.5-2.5 c0.2-0.3,0.6-0.6,1-0.6h2.9c0.3,0,0.8,0.3,1,0.6l1.5,2.5c0.2,0.3,0.2,0.8,0,1.1l-1.5,2.5c-0.2,0.3-0.6,0.6-1,0.6H21.6z" class="st10"/></g><g id="XMLID_1_"><path id="XMLID_11_" d="M94.8,64.8c-0.3,0-0.8-0.3-1-0.6l-1.5-2.5c-0.2-0.3-0.2-0.8,0-1.1l1.5-2.5 c0.2-0.3,0.6-0.6,1-0.6h2.9c0.3,0,0.8,0.3,1,0.6l1.5,2.5c0.2,0.3,0.2,0.8,0,1.1l-1.5,2.5c-0.2,0.3-0.6,0.6-1,0.6H94.8z" class="st10"/></g></g></svg>