<svg xmlns="http://www.w3.org/2000/svg" xmlns:xlink="http://www.w3.org/1999/xlink" width="25" height="21" version="1.1" viewBox="0 0 25 21"><title>Group 13 Copy</title><desc>Created with Sketch.</desc><g id="Pages" fill="none" fill-rule="evenodd" stroke="none" stroke-width="1"><g id="Pricing--v2---modified" transform="translate(-525.000000, -816.000000)"><g id="Group-13-Copy" transform="translate(526.000000, 815.000000)"><path id="Polygon" stroke="#64BBE4" d="M12.5,0.577350269 L20.4592921,5.17264973 C21.0780943,5.52991532 21.4592921,6.19016936 21.4592921,6.90470054 L21.4592921,16.0952995 C21.4592921,16.8098306 21.0780943,17.4700847 20.4592921,17.8273503 L12.5,22.4226497 C11.8811978,22.7799153 11.1188022,22.7799153 10.5,22.4226497 L2.54070786,17.8273503 C1.9219057,17.4700847 1.54070786,16.8098306 1.54070786,16.0952995 L1.54070786,6.90470054 C1.54070786,6.19016936 1.9219057,5.52991532 2.54070786,5.17264973 L10.5,0.577350269 C11.1188022,0.220084679 11.8811978,0.220084679 12.5,0.577350269 Z" transform="translate(11.500000, 11.500000) rotate(90.000000) translate(-11.500000, -11.500000)"/><text id="?" fill="#64BBE4" font-family="Rubik-Medium, Rubik" font-size="12" font-weight="400"><tspan x="8" y="16">?</tspan></text></g></g></g></svg>