<svg xmlns="http://www.w3.org/2000/svg" xmlns:xlink="http://www.w3.org/1999/xlink" width="1160" height="299" version="1.1" viewBox="0 0 1160 299"><title>Group 5</title><desc>Created with Sketch.</desc><defs><linearGradient id="linearGradient-1" x1="79.583%" x2="-18.228%" y1="-44.461%" y2="131.799%"><stop offset="0%" stop-color="#F3FDFF"/><stop offset="100%" stop-color="#DFE1FF"/></linearGradient></defs><g id="Landingpage---v2" fill="none" fill-rule="evenodd" stroke="none" stroke-width="1" opacity=".577"><g id="Get-Started-Landing-Page" fill="url(#linearGradient-1)" transform="translate(-394.000000, -3200.000000)"><g id="Group-24" transform="translate(390.000000, 3182.000000)"><g id="Group-5"><path id="Polygon-Copy-5" d="M43.5,259.907477 L55.0788383,266.592523 C60.3386566,269.62928 63.5788383,275.24144 63.5788383,281.314955 L63.5788383,294.685045 C63.5788383,300.75856 60.3386566,306.37072 55.0788383,309.407477 L43.5,316.092523 C38.2401817,319.12928 31.7598183,319.12928 26.5,316.092523 L14.9211617,309.407477 C9.66134337,306.37072 6.42116168,300.75856 6.42116168,294.685045 L6.42116168,281.314955 C6.42116168,275.24144 9.66134337,269.62928 14.9211617,266.592523 L26.5,259.907477 C31.7598183,256.87072 38.2401817,256.87072 43.5,259.907477 Z" transform="translate(35.000000, 288.000000) rotate(-267.000000) translate(-35.000000, -288.000000)"/><path id="Polygon-Copy-4" d="M1097.5,105.907477 L1151.51408,137.092523 C1156.7739,140.12928 1160.01408,145.74144 1160.01408,151.814955 L1160.01408,214.185045 C1160.01408,220.25856 1156.7739,225.87072 1151.51408,228.907477 L1097.5,260.092523 C1092.24018,263.12928 1085.75982,263.12928 1080.5,260.092523 L1026.48592,228.907477 C1021.2261,225.87072 1017.98592,220.25856 1017.98592,214.185045 L1017.98592,151.814955 C1017.98592,145.74144 1021.2261,140.12928 1026.48592,137.092523 L1080.5,105.907477 C1085.75982,102.87072 1092.24018,102.87072 1097.5,105.907477 Z" transform="translate(1089.000000, 183.000000) rotate(-248.000000) translate(-1089.000000, -183.000000)"/><path id="Polygon-Copy-6" d="M351.5,20.9074773 L380.399346,37.5925227 C385.659165,40.6292802 388.899346,46.2414395 388.899346,52.3149546 L388.899346,85.6850454 C388.899346,91.7585605 385.659165,97.3707198 380.399346,100.407477 L351.5,117.092523 C346.240182,120.12928 339.759818,120.12928 334.5,117.092523 L305.600654,100.407477 C300.340835,97.3707198 297.100654,91.7585605 297.100654,85.6850454 L297.100654,52.3149546 C297.100654,46.2414395 300.340835,40.6292802 305.600654,37.5925227 L334.5,20.9074773 C339.759818,17.8707198 346.240182,17.8707198 351.5,20.9074773 Z" transform="translate(343.000000, 69.000000) rotate(-248.000000) translate(-343.000000, -69.000000)"/></g></g></g></g></svg>