<svg xmlns="http://www.w3.org/2000/svg" xmlns:xlink="http://www.w3.org/1999/xlink" id="Layer_1" x="0" y="0" version="1.1" viewBox="0 0 90 90" xml:space="preserve" style="enable-background:new 0 0 90 90"><style type="text/css">.st0{fill:none;stroke:#9e62dd;stroke-linecap:round;stroke-linejoin:round;stroke-miterlimit:10}.st0,.st1{stroke-width:1.5}.st1,.st2,.st3{fill:none;stroke-linecap:round;stroke-linejoin:round;stroke-miterlimit:10}.st1,.st2{stroke:#6738b8}.st2,.st3{stroke-width:2.3281}.st3{stroke:#9e62dd}</style><title>Snowplow_Website-Services_Icons</title><g id="XMLID_245_"><line id="XMLID_246_" x1="17.1" x2="39.8" y1="79.5" y2="79.5" class="st0"/></g><g id="XMLID_243_"><line id="XMLID_244_" x1="44.9" x2="44.9" y1="69.2" y2="74.2" class="st0"/></g><g id="XMLID_241_"><line id="XMLID_242_" x1="50.1" x2="72.8" y1="79.5" y2="79.5" class="st0"/></g><path id="XMLID_240_" d="M3.7,14.7c0-4,3.2-7.2,7.2-7.2h68c3.9,0,7.2,3.2,7.2,7.2v6.2c0,4-3.2,7.2-7.2,7.2h-68	c-3.9,0-7.2-3.2-7.2-7.2V14.7z" class="st1"/><line id="XMLID_239_" x1="31.9" x2="11.2" y1="21.9" y2="21.9" class="st1"/><line id="XMLID_238_" x1="79.9" x2="79.9" y1="17.8" y2="17.8" class="st2"/><line id="XMLID_237_" x1="75.8" x2="75.8" y1="17.8" y2="17.8" class="st3"/><path id="XMLID_235_" d="M3.7,35.2c0-4,3.2-7.2,7.2-7.2h68c3.9,0,7.2,3.2,7.2,7.2v6.2c0,4-3.2,7.2-7.2,7.2h-68	c-3.9,0-7.2-3.2-7.2-7.2V35.2z" class="st1"/><line id="XMLID_234_" x1="31.9" x2="11.2" y1="42.5" y2="42.5" class="st1"/><line id="XMLID_233_" x1="75.8" x2="75.8" y1="38.3" y2="38.3" class="st2"/><line id="XMLID_232_" x1="79.9" x2="79.9" y1="38.3" y2="38.3" class="st3"/><path id="XMLID_230_" d="M3.7,55.8c0-4,3.2-7.2,7.2-7.2h68c3.9,0,7.2,3.2,7.2,7.2V62c0,4-3.2,7.2-7.2,7.2h-68	C7,69.2,3.7,66,3.7,62V55.8z" class="st1"/><line id="XMLID_224_" x1="31.9" x2="11.2" y1="63.1" y2="63.1" class="st1"/><line id="XMLID_222_" x1="79.9" x2="79.9" y1="58.9" y2="58.9" class="st2"/><line id="XMLID_221_" x1="75.8" x2="75.8" y1="58.9" y2="58.9" class="st3"/><g id="XMLID_219_"><path d="M50.1,83c0,1.1-0.9,2.1-2.1,2.1h-6.2c-1.1,0-2.1-0.9-2.1-2.1v-6.2c0-1.1,0.9-2.1,2.1-2.1H48 c1.1,0,2.1,0.9,2.1,2.1V83z" class="st1"/></g></svg>