<svg xmlns="http://www.w3.org/2000/svg" xmlns:xlink="http://www.w3.org/1999/xlink" id="Layer_1" x="0" y="0" version="1.1" viewBox="0 0 90 90" xml:space="preserve" style="enable-background:new 0 0 90 90"><style type="text/css">.st0{fill:none;stroke-width:1.5;stroke-linecap:round;stroke-linejoin:round}.st0,.st1,.st2{stroke:#9e62dd}.st1{fill:none;stroke-width:1.5;stroke-linecap:round;stroke-linejoin:round;stroke-dasharray:3.0584,5.0973}.st2{stroke-dasharray:3.2913,5.4854}.st2,.st3,.st4{fill:none;stroke-width:1.5;stroke-linecap:round;stroke-linejoin:round}.st3{stroke:#9e62dd;stroke-dasharray:3.1782,5.2969}.st4{stroke:#6738b8}</style><title>Snowplow_Website-Services_Icons</title><path id="XMLID_214_" d="M13.8,33.4c-0.9,0-1.9-0.6-2.5-1.4l-6-10.5c-0.5-0.9-0.5-1.9,0-2.8l6-10.5	c0.5-0.8,1.4-1.4,2.5-1.4h12.1c0.9,0,1.9,0.6,2.5,1.4l6,10.5c0.5,0.9,0.5,1.9,0,2.8l-6,10.5c-0.5,0.8-1.4,1.4-2.5,1.4H13.8z" class="st0"/><path id="XMLID_210_" d="M40.6,48c-0.4,0-0.8-0.3-1.1-0.6l-2.7-4.7c-0.2-0.4-0.2-0.8,0-1.3l2.7-4.7	c0.2-0.3,0.6-0.6,1.1-0.6H46c0.4,0,0.8,0.3,1.1,0.6l2.7,4.7c0.2,0.4,0.2,0.8,0,1.3l-2.7,4.7C46.9,47.7,46.4,48,46,48H40.6z" class="st0"/><line id="XMLID_213_" x1="56" x2="49.9" y1="42" y2="42" class="st0"/><g id="XMLID_223_"><g><line x1="34.7" x2="36.4" y1="19.4" y2="19.4" class="st0"/><polyline points="41.6 19.4 43.3 19.4 43.3 21.1" class="st0"/><line x1="43.3" x2="43.3" y1="26.2" y2="31.8" class="st1"/><line x1="43.3" x2="43.3" y1="34.4" y2="36.1" class="st0"/></g></g><g id="XMLID_229_"><g><line x1="19.8" x2="19.8" y1="33.6" y2="35.3" class="st0"/><line x1="19.8" x2="19.8" y1="40.8" y2="55.6" class="st2"/><polyline points="19.8 58.4 19.8 60.1 21.6 60.1" class="st0"/><line x1="26.8" x2="66.6" y1="60.1" y2="60.1" class="st3"/><line x1="69.2" x2="70.9" y1="60.1" y2="60.1" class="st0"/></g></g><path id="XMLID_228_" d="M61,5.1h19.6c2.9,0,5.2,2.3,5.2,5.2v6.6c0,2.9-2.3,5-5.2,5H61c-2.9,0-5-2.3-5-5v-6.6	C56,7.4,58.3,5.1,61,5.1z" class="st4"/><path id="XMLID_227_" d="M61,33.6h19.6c2.9,0,5.2,2.3,5.2,5.2v6.6c0,2.9-2.3,5-5.2,5H61c-2.9,0-5-2.3-5-5v-6.6	C56,35.9,58.3,33.6,61,33.6z" class="st4"/><path id="XMLID_226_" d="M9.8,70.8h70.8c2.9,0,5.2,2.3,5.2,5.2v6.6c0,2.9-2.3,5-5.2,5H9.8c-2.9,0-5-2.3-5-5V76	C4.8,73.1,7.1,70.8,9.8,70.8z" class="st4"/><line id="XMLID_225_" x1="70.9" x2="70.9" y1="70.8" y2="50.4" class="st4"/><line id="XMLID_215_" x1="70.9" x2="70.9" y1="33.6" y2="21.9" class="st4"/></svg>