<svg xmlns="http://www.w3.org/2000/svg" xmlns:xlink="http://www.w3.org/1999/xlink" width="116pt" height="188pt" viewBox="0 0 115.89 188"><g id="graph0" class="graph" transform="scale(1 1) rotate(0) translate(4 184)"><title>echo order demo</title><polygon fill="#fff" stroke="none" points="-4 4 -4 -184 111.89 -184 111.89 4 -4 4"/><g id="node1" class="node"><title>echo alpha</title><ellipse cx="53.945" cy="-162" fill="none" stroke="#000" rx="48.993" ry="18"/><text x="53.945" y="-158.3" font-family="Times,serif" font-size="14" text-anchor="middle">echo alpha</text></g><g id="node2" class="node"><title>echo beta</title><ellipse cx="53.945" cy="-90" fill="none" stroke="#000" rx="44.393" ry="18"/><text x="53.945" y="-86.3" font-family="Times,serif" font-size="14" text-anchor="middle">echo beta</text></g><g id="edge1" class="edge"><title>echo alpha-&gt;echo beta</title><path fill="none" stroke="#000" d="M53.9452,-143.697C53.9452,-135.983 53.9452,-126.712 53.9452,-118.112"/><polygon fill="#000" stroke="#000" points="57.445 -118.104 53.945 -108.104 50.445 -118.104 57.445 -118.104"/></g><g id="node3" class="node"><title>echo omega</title><ellipse cx="53.945" cy="-18" fill="none" stroke="#000" rx="53.891" ry="18"/><text x="53.945" y="-14.3" font-family="Times,serif" font-size="14" text-anchor="middle">echo omega</text></g><g id="edge2" class="edge"><title>echo beta-&gt;echo omega</title><path fill="none" stroke="#000" d="M53.9452,-71.6966C53.9452,-63.9827 53.9452,-54.7125 53.9452,-46.1124"/><polygon fill="#000" stroke="#000" points="57.445 -46.104 53.945 -36.104 50.445 -46.104 57.445 -46.104"/></g></g></svg>