<svg xmlns="http://www.w3.org/2000/svg" xmlns:xlink="http://www.w3.org/1999/xlink" width="172pt" height="188pt" viewBox="0 0 171.79 188"><g id="graph0" class="graph" transform="scale(1 1) rotate(0) translate(4 184)"><title>G</title><polygon fill="#fff" stroke="none" points="-4 4 -4 -184 167.794 -184 167.794 4 -4 4"/><g id="node1" class="node"><title>Task A</title><ellipse cx="81.397" cy="-162" fill="none" stroke="#000" rx="36.294" ry="18"/><text x="81.397" y="-158.3" font-family="Times,serif" font-size="14" text-anchor="middle">Task A</text></g><g id="node2" class="node"><title>Task B</title><ellipse cx="36.397" cy="-90" fill="#cd2626" stroke="#000" rx="36.294" ry="18"/><text x="36.397" y="-86.3" font-family="Times,serif" font-size="14" text-anchor="middle">Task B</text></g><g id="edge1" class="edge"><title>Task A-&gt;Task B</title><path fill="none" stroke="#000" d="M70.7324,-144.411C65.2963,-135.955 58.5717,-125.494 52.5185,-116.078"/><polygon fill="#000" stroke="#000" points="55.336 -113.989 46.985 -107.47 49.448 -117.774 55.336 -113.989"/></g><g id="node3" class="node"><title>Task C</title><ellipse cx="127.397" cy="-90" fill="none" stroke="#000" rx="36.294" ry="18"/><text x="127.397" y="-86.3" font-family="Times,serif" font-size="14" text-anchor="middle">Task C</text></g><g id="edge2" class="edge"><title>Task A-&gt;Task C</title><path fill="none" stroke="#000" d="M92.0657,-144.765C97.6741,-136.23 104.671,-125.582 110.956,-116.019"/><polygon fill="#000" stroke="#000" points="113.899 -117.913 116.466 -107.633 108.049 -114.068 113.899 -117.913"/></g><g id="node5" class="node"><title>Task E</title><ellipse cx="36.397" cy="-18" fill="#1874cd" stroke="#000" rx="35.995" ry="18"/><text x="36.397" y="-14.3" font-family="Times,serif" font-size="14" text-anchor="middle">Task E</text></g><g id="edge4" class="edge"><title>Task B-&gt;Task E</title><path fill="none" stroke="#000" d="M36.3968,-71.6966C36.3968,-63.9827 36.3968,-54.7125 36.3968,-46.1124"/><polygon fill="#000" stroke="#000" points="39.897 -46.104 36.397 -36.104 32.897 -46.104 39.897 -46.104"/></g><g id="node4" class="node"><title>Task D</title><ellipse cx="127.397" cy="-18" fill="none" stroke="#000" rx="36.294" ry="18"/><text x="127.397" y="-14.3" font-family="Times,serif" font-size="14" text-anchor="middle">Task D</text></g><g id="edge3" class="edge"><title>Task C-&gt;Task D</title><path fill="none" stroke="#000" d="M127.397,-71.6966C127.397,-63.9827 127.397,-54.7125 127.397,-46.1124"/><polygon fill="#000" stroke="#000" points="130.897 -46.104 127.397 -36.104 123.897 -46.104 130.897 -46.104"/></g></g></svg>