<svg xmlns="http://www.w3.org/2000/svg" xmlns:xlink="http://www.w3.org/1999/xlink" width="935" height="1285" version="1.1" viewBox="0 0 935 1285"><title>Group 38</title><desc>Created with Sketch.</desc><defs><linearGradient id="linearGradient-1" x1="79.583%" x2="-18.228%" y1="-44.461%" y2="131.799%"><stop offset="0%" stop-color="#F3FDFF"/><stop offset="100%" stop-color="#DFE1FF"/></linearGradient></defs><g id="Landingpage---v2" fill="none" fill-rule="evenodd" stroke="none" stroke-width="1" opacity=".057"><g id="Webinar-Landing-Page---SP-VS-Heap" fill="url(#linearGradient-1)" transform="translate(-985.000000, -1116.000000)"><g id="Group-33" transform="translate(369.000000, 1047.000000)"><g id="Background" transform="translate(611.000000, 0.000000)"><g id="Group-38"><path id="Polygon" d="M535,151.969655 L943.869108,388.030345 C955.626349,394.818391 962.869108,407.363218 962.869108,420.93931 L962.869108,893.06069 C962.869108,906.636782 955.626349,919.181609 943.869108,925.969655 L535,1162.03034 C523.242759,1168.81839 508.757241,1168.81839 497,1162.03034 L88.1308916,925.969655 C76.3736507,919.181609 69.1308916,906.636782 69.1308916,893.06069 L69.1308916,420.93931 C69.1308916,407.363218 76.3736507,394.818391 88.1308916,388.030345 L497,151.969655 C508.757241,145.181609 523.242759,145.181609 535,151.969655 Z" transform="translate(516.000000, 657.000000) rotate(90.000000) translate(-516.000000, -657.000000)"/><path id="Polygon-Copy" d="M996,10.9696551 L1404.86911,247.030345 C1416.62635,253.818391 1423.86911,266.363218 1423.86911,279.93931 L1423.86911,752.06069 C1423.86911,765.636782 1416.62635,778.181609 1404.86911,784.969655 L996,1021.03034 C984.242759,1027.81839 969.757241,1027.81839 958,1021.03034 L549.130892,784.969655 C537.373651,778.181609 530.130892,765.636782 530.130892,752.06069 L530.130892,279.93931 C530.130892,266.363218 537.373651,253.818391 549.130892,247.030345 L958,10.9696551 C969.757241,4.18160891 984.242759,4.18160891 996,10.9696551 Z" transform="translate(977.000000, 516.000000) rotate(90.000000) translate(-977.000000, -516.000000)"/><path id="Polygon-Copy-2" d="M829,401.969655 L1237.86911,638.030345 C1249.62635,644.818391 1256.86911,657.363218 1256.86911,670.93931 L1256.86911,1143.06069 C1256.86911,1156.63678 1249.62635,1169.18161 1237.86911,1175.96966 L829,1412.03034 C817.242759,1418.81839 802.757241,1418.81839 791,1412.03034 L382.130892,1175.96966 C370.373651,1169.18161 363.130892,1156.63678 363.130892,1143.06069 L363.130892,670.93931 C363.130892,657.363218 370.373651,644.818391 382.130892,638.030345 L791,401.969655 C802.757241,395.181609 817.242759,395.181609 829,401.969655 Z" transform="translate(810.000000, 907.000000) rotate(90.000000) translate(-810.000000, -907.000000)"/></g></g></g></g></g></svg>