<svg xmlns="http://www.w3.org/2000/svg" viewBox="0 0 521.57 439.37"><defs><style>.cls-1,.cls-10,.cls-13,.cls-22,.cls-7{fill:none}.cls-1,.cls-22{stroke:#f88298}.cls-1,.cls-10,.cls-13,.cls-14,.cls-2,.cls-22,.cls-3,.cls-5,.cls-8{stroke-linecap:round;stroke-linejoin:round}.cls-1,.cls-2{stroke-width:2.5px}.cls-14,.cls-2,.cls-8{fill:#fff}.cls-10,.cls-2,.cls-3,.cls-7,.cls-8{stroke:#6738b8}.cls-3,.cls-5,.cls-9{fill:#fcfdff}.cls-10,.cls-13,.cls-14,.cls-22,.cls-3,.cls-5,.cls-7,.cls-8{stroke-width:1.5px}.cls-16,.cls-4,.cls-6{fill:#f88298}.cls-21,.cls-4{opacity:.2}.cls-15,.cls-18,.cls-4{isolation:isolate}.cls-13,.cls-14,.cls-5{stroke:#9e62dd}.cls-7{stroke-miterlimit:10}.cls-11,.cls-15,.cls-17{fill:#9e62dd}.cls-12{fill:#6738b8}.cls-15,.cls-16,.cls-17,.cls-19{opacity:.3}.cls-20{fill:#bddef4}</style></defs><title>spw-mobile1 copy 2</title><g id="TRAVEL"><g id="spw-travel1"><line x1="321.3" x2="363.63" y1="110.9" y2="110.9" class="cls-1"/><line x1="260.79" x2="260.79" y1="167.27" y2="272.1" class="cls-1"/><g id="_Group_6" data-name="Group 6"><path d="M203.19,124.1c-4.16-7.17-4.16-18.94,0-26.25l17.5-30.27c4.16-7.17,14.35-13,22.67-13h34.86c8.32,0,18.5,5.88,22.66,13l17.5,30.27c4.16,7.17,4.16,18.93,0,26.25l-17.5,30.12c-4.16,7.17-14.34,13.05-22.66,13.05H243.36c-8.32,0-18.51-5.88-22.67-13.05Z" class="cls-2"/></g><path d="M282.94,118V82a4.09,4.09,0,0,0-4.08-4.08H230.79A4.09,4.09,0,0,0,226.7,82v36" class="cls-3"/><path d="M222.05,118c0,2.25,1.83,5.26,4.08,5.27h57.38c2.25,0,4.07-3,4.08-5.27Z" class="cls-3"/><rect width="54.63" height="15.86" x="227.51" y="82.74" class="cls-4"/><line x1="250.86" x2="231.35" y1="102.93" y2="102.93" class="cls-5"/><line x1="250.86" x2="231.35" y1="107.25" y2="107.25" class="cls-5"/><line x1="243.79" x2="231.35" y1="111.57" y2="111.57" class="cls-5"/><rect width="10.77" height="4.72" x="257.83" y="102.2" class="cls-6" rx=".67"/><line x1="157.74" x2="200.07" y1="328.47" y2="328.47" class="cls-1"/><line x1="97.03" x2="97.03" y1="167.27" y2="272.1" class="cls-1"/><line x1="424.55" x2="424.55" y1="167.27" y2="272.1" class="cls-1"/><g id="_Group_6-2" data-name="Group 6"><path d="M39.43,124.1c-4.16-7.17-4.16-18.94,0-26.25L56.94,67.58c4.16-7.17,14.34-13,22.66-13h34.86c8.32,0,18.5,5.88,22.66,13l17.5,30.27c4.16,7.17,4.16,18.93,0,26.25l-17.5,30.12c-4.16,7.17-14.34,13.05-22.66,13.05H79.6c-8.32,0-18.5-5.88-22.66-13.05Z" class="cls-2"/></g><g id="_Group_6-3" data-name="Group 6"><path d="M367,124.1c-4.16-7.17-4.16-18.94,0-26.25l17.5-30.27c4.16-7.17,14.35-13,22.67-13H442c8.31,0,18.5,5.88,22.66,13l17.5,30.27c4.16,7.17,4.16,18.93,0,26.25l-17.5,30.12c-4.16,7.17-14.35,13.05-22.66,13.05H407.12c-8.32,0-18.51-5.88-22.67-13.05Z" class="cls-2"/></g><g id="_Group_6-4" data-name="Group 6"><path d="M39.43,341.67c-4.16-7.18-4.16-18.94,0-26.25l17.51-30.27c4.16-7.17,14.34-13,22.66-13h34.86c8.32,0,18.5,5.88,22.66,13l17.5,30.27c4.16,7.17,4.16,18.93,0,26.25l-17.5,30.12c-4.16,7.17-14.34,13-22.66,13H79.6c-8.32,0-18.5-5.88-22.66-13Z" class="cls-2"/></g><g id="_Group_6-5" data-name="Group 6"><path d="M203.19,341.67c-4.16-7.18-4.16-18.94,0-26.25l17.5-30.27c4.16-7.17,14.35-13,22.67-13h34.86c8.32,0,18.5,5.88,22.66,13l17.5,30.27c4.16,7.17,4.16,18.93,0,26.25l-17.5,30.12c-4.16,7.17-14.34,13-22.66,13H243.36c-8.32,0-18.51-5.88-22.67-13Z" class="cls-2"/></g><g id="_Group_6-6" data-name="Group 6"><path d="M367,341.67c-4.16-7.18-4.16-18.94,0-26.25l17.5-30.27c4.16-7.17,14.35-13,22.67-13H442c8.31,0,18.5,5.88,22.66,13l17.5,30.27c4.16,7.17,4.16,18.93,0,26.25l-17.5,30.12c-4.16,7.17-14.35,13-22.66,13H407.12c-8.32,0-18.51-5.88-22.67-13Z" class="cls-2"/></g><polyline points="339.98 105.91 344.96 110.9 339.98 115.89" class="cls-1"/><polyline points="429.53 217.19 424.55 222.18 419.56 217.19" class="cls-1"/><polyline points="102.02 217.19 97.03 222.18 92.04 217.19" class="cls-1"/><polyline points="265.77 222.18 260.79 217.19 255.8 222.18" class="cls-1"/><polyline points="176.41 323.48 181.4 328.47 176.41 333.46" class="cls-1"/><path d="M441.23,110.45V133.8A5.2,5.2,0,0,1,436,139H412.69a5.21,5.21,0,0,1-5.19-5.19V84.5a5.2,5.2,0,0,1,5.19-5.19H436a5.2,5.2,0,0,1,5.19,5.19Z" class="cls-3"/><path d="M421.77,132.36a2.6,2.6,0,1,0,2.6-2.59A2.59,2.59,0,0,0,421.77,132.36Z" class="cls-7"/><path d="M131,302.84a5,5,0,0,0-4.93-4.93H68a5,5,0,0,0-4.93,4.93v43.5A5,5,0,0,0,68,351.27h58.1a5,5,0,0,0,4.93-4.93Z" class="cls-8"/><path d="M57.42,346.34a5,5,0,0,0,4.93,4.93H131.7a5,5,0,0,0,4.94-4.93Z" class="cls-9"/><path d="M57.42,346.34a5,5,0,0,0,4.93,4.93H131.7a5,5,0,0,0,4.94-4.93Z" class="cls-10"/><line x1="83.29" x2="131.01" y1="303.67" y2="303.67" class="cls-10"/><path d="M79.38,303.69a1.3,1.3,0,1,1-1.3-1.3A1.31,1.31,0,0,1,79.38,303.69Z" class="cls-6"/><path d="M74.7,303.69a1.31,1.31,0,1,1-2.61,0,1.31,1.31,0,0,1,2.61,0Z" class="cls-11"/><path d="M70,303.69a1.31,1.31,0,1,1-1.3-1.3A1.31,1.31,0,0,1,70,303.69Z" class="cls-12"/><path d="M86.67,319.65a.59.59,0,0,1,.61-.43h.58a.44.44,0,0,1,.43.43l0,.14L85.55,328c-.11.33-.29.49-.54.49h-.55a.45.45,0,0,1-.34-.13,1.22,1.22,0,0,1-.21-.36l-2.12-5.91L79.68,328a1.49,1.49,0,0,1-.22.36.42.42,0,0,1-.33.13h-.56c-.25,0-.42-.16-.53-.49l-2.73-8.19v-.14a.43.43,0,0,1,.42-.43h.59a.6.6,0,0,1,.61.43l2,5.94L81,319.65a.58.58,0,0,1,.56-.43H82a.56.56,0,0,1,.55.43l2.14,5.94Z" class="cls-6"/><path d="M101.9,319.65a.6.6,0,0,1,.6-.43h.59a.42.42,0,0,1,.31.13.41.41,0,0,1,.12.3l0,.14L100.78,328c-.11.33-.29.49-.53.49h-.56a.45.45,0,0,1-.34-.13,1.22,1.22,0,0,1-.21-.36L97,322.07,94.91,328a1,1,0,0,1-.22.36.42.42,0,0,1-.33.13H93.8c-.24,0-.42-.16-.53-.49l-2.72-8.19,0-.14a.44.44,0,0,1,.43-.43h.59a.6.6,0,0,1,.6.43l2,5.94,2.14-5.94a.56.56,0,0,1,.55-.43h.39a.56.56,0,0,1,.55.43l2.14,5.94Z" class="cls-6"/><path d="M117.13,319.65a.6.6,0,0,1,.61-.43h.58a.44.44,0,0,1,.43.43l0,.14L116,328c-.1.33-.28.49-.54.49h-.55a.42.42,0,0,1-.33-.13,1,1,0,0,1-.21-.36l-2.12-5.91L110.14,328a1.22,1.22,0,0,1-.21.36.45.45,0,0,1-.34.13H109c-.25,0-.43-.16-.54-.49l-2.72-8.19,0-.14a.42.42,0,0,1,.13-.3.38.38,0,0,1,.3-.13h.58a.59.59,0,0,1,.61.43l2,5.94,2.14-5.94a.56.56,0,0,1,.55-.43h.39a.56.56,0,0,1,.55.43l2.14,5.94Z" class="cls-6"/><path d="M288.2,356.82,274.55,340.9a7.44,7.44,0,0,0-5.65-2.59H252.68A7.41,7.41,0,0,0,247,340.9l-13.66,15.92" class="cls-10"/><path d="M289.91,320l-23.55-26.84a7.41,7.41,0,0,0-11.15,0L231.67,320v32.72a5.81,5.81,0,0,0,5.79,5.79h46.66a5.81,5.81,0,0,0,5.79-5.79Z" class="cls-10"/><path d="M282.78,331V299a4.07,4.07,0,0,0-4.06-4.07H242.86a4.08,4.08,0,0,0-4.07,4.07v32" class="cls-8"/><line x1="247.86" x2="273.71" y1="303.8" y2="303.8" class="cls-13"/><line x1="247.86" x2="273.71" y1="308.71" y2="308.71" class="cls-13"/><line x1="247.86" x2="273.71" y1="313.61" y2="313.61" class="cls-13"/><line x1="247.86" x2="263.63" y1="318.52" y2="318.52" class="cls-13"/><rect width="14.1" height="6.18" x="247.23" y="323.85" class="cls-6" rx=".87"/><polygon points="270.32 342.27 264.55 343.27 261.35 348.18 254.28 327.64 270.32 342.27" class="cls-14"/><line x1="264.55" x2="269.16" y1="343.27" y2="350.28" class="cls-14"/><line x1="247.23" x2="231.64" y1="340.68" y2="322.84" class="cls-10"/><line x1="289.91" x2="274.33" y1="322.84" y2="340.67" class="cls-10"/><path d="M113.23,147.37a4.24,4.24,0,0,0,3.93-4.48v-64a4.24,4.24,0,0,0-3.93-4.48H80.82a4.23,4.23,0,0,0-3.92,4.48v64a4.24,4.24,0,0,0,3.92,4.48Z" class="cls-3"/><path d="M97,143.19a2.91,2.91,0,1,1,2.89-2.92v0A2.91,2.91,0,0,1,97,143.19Z" class="cls-3"/><line x1="99.26" x2="94.79" y1="78.81" y2="78.81" class="cls-3"/><line x1="105.65" x2="84.45" y1="117.5" y2="117.5" class="cls-5"/><line x1="109.71" x2="84.45" y1="122.42" y2="122.42" class="cls-5"/><rect width="10.08" height="4.42" x="84.04" y="126.71" class="cls-6" rx=".62"/><rect width="40.26" height="29.34" x="76.9" y="82.59" class="cls-4"/><path d="M268.6,96.8a4.47,4.47,0,0,1,4.46-4.47h20.09a4.48,4.48,0,0,1,4.47,4.47v42.42a4.48,4.48,0,0,1-4.47,4.46H273.06a4.47,4.47,0,0,1-4.46-4.46Z" class="cls-3"/><line x1="284.78" x2="281.43" y1="96.46" y2="96.46" class="cls-10"/><path d="M280.87,137.79a2.24,2.24,0,1,0,2.23-2.24A2.23,2.23,0,0,0,280.87,137.79Z" class="cls-7"/><line x1="426.32" x2="422.41" y1="84.13" y2="84.13" class="cls-10"/><rect width="27.42" height="19.04" x="269.39" y="99.63" class="cls-4"/><line x1="292.86" x2="273.35" y1="122.64" y2="122.64" class="cls-5"/><rect width="10.77" height="4.72" x="272.69" y="126.64" class="cls-6" rx=".67"/><path d="M415.81,111.76l1.94-3.36a2.44,2.44,0,0,1,1.91-1.11h9.41A2.44,2.44,0,0,1,431,108.4l1.95,3.36a13,13,0,1,0-17.12,0Zm8.56-18a5.17,5.17,0,1,1-5.17,5.17A5.17,5.17,0,0,1,424.37,93.74Z" class="cls-15"/><circle cx="424.57" cy="312.98" r="5.16" class="cls-16"/><circle cx="432.75" cy="302.65" r="5.16" class="cls-17"/><circle cx="416.71" cy="302.65" r="5.16" class="cls-17"/><circle cx="424.57" cy="291.84" r="5.16" class="cls-17"/><circle cx="408.53" cy="291.84" r="5.16" class="cls-16"/><circle cx="440.42" cy="291.84" r="5.16" class="cls-16"/><circle cx="424.55" cy="356.92" r="12.74" class="cls-10"/><circle cx="424.55" cy="356.92" r="9.01" class="cls-16"/><g class="cls-18"><path d="M429,358.68a.24.24,0,0,1,.07.21,2.65,2.65,0,0,1-.52,1.52,3.47,3.47,0,0,1-1.43,1.11,5.54,5.54,0,0,1-2.2.41,4.35,4.35,0,0,1-2.84-.85,3.54,3.54,0,0,1-1.24-2.43H420a.34.34,0,0,1-.33-.33v-.82a.3.3,0,0,1,.1-.24.32.32,0,0,1,.23-.09h.87v-.53H420a.34.34,0,0,1-.33-.34v-.81a.32.32,0,0,1,.33-.34h.91a3.52,3.52,0,0,1,1.23-2.45,4.34,4.34,0,0,1,2.85-.85,5.54,5.54,0,0,1,2.2.41,3.47,3.47,0,0,1,1.43,1.11,2.65,2.65,0,0,1,.52,1.52v0a.23.23,0,0,1-.09.19.3.3,0,0,1-.2.08h-1.36a.4.4,0,0,1-.26-.08.5.5,0,0,1-.16-.27,1.76,1.76,0,0,0-.72-1,2.61,2.61,0,0,0-1.36-.32,1.83,1.83,0,0,0-2,1.68h2.31a.31.31,0,0,1,.34.34v.81a.34.34,0,0,1-.34.34h-2.37v.53h2.37a.35.35,0,0,1,.25.09.32.32,0,0,1,.09.24v.82a.32.32,0,0,1-.34.33h-2.31a1.82,1.82,0,0,0,2,1.65,2.51,2.51,0,0,0,1.36-.32,1.74,1.74,0,0,0,.72-1,.58.58,0,0,1,.16-.28.4.4,0,0,1,.26-.07h1.36A.29.29,0,0,1,429,358.68Z" class="cls-6"/></g><path d="M399,302.66s0,0,0,0h0l0,0h0l.05.06v0h0l0,.05,0,0h0l0,.05.07.1-.05-.07.05.08h0l.06.09v0l18.14,26.32h-.1V340a20,20,0,0,1,14.38,0V329.41h0l0,0,0,0,0,0v0l0,0,0,0,0,0,0,0v0l0-.06.07-.1h0l.07-.1,0,0,0,0c1-1.44,4.89-7.11,18.13-26.32Z" class="cls-10"/><g id="Layer_84" data-name="Layer 84"><g id="_Group_6-7" class="cls-19" data-name="Group 6"><path d="M162.86,257.11a5.08,5.08,0,0,1,0-4.56l3-5.26a5,5,0,0,1,3.94-2.26h6a5,5,0,0,1,3.94,2.26l3,5.26a5.08,5.08,0,0,1,0,4.56l-3,5.23a5,5,0,0,1-3.94,2.27h-6a5,5,0,0,1-3.94-2.27Z" class="cls-20"/></g><g id="_Group_6-8" class="cls-19" data-name="Group 6"><path d="M358.81,250.94a5,5,0,0,1,0-4.55l3-5.26a5,5,0,0,1,3.93-2.27h6.06a5,5,0,0,1,3.93,2.27l3,5.26a5.06,5.06,0,0,1,0,4.55l-3,5.24a5,5,0,0,1-3.93,2.26h-6.06a5,5,0,0,1-3.93-2.26Z" class="cls-20"/></g><g id="_Group_6-9" class="cls-19" data-name="Group 6"><path d="M358.81,174.78a5,5,0,0,1,0-4.56l3-5.26a5,5,0,0,1,3.93-2.27h6.06a5,5,0,0,1,3.93,2.27l3,5.26a5.08,5.08,0,0,1,0,4.56l-3,5.23a5.06,5.06,0,0,1-3.93,2.27h-6.06a5.06,5.06,0,0,1-3.93-2.27Z" class="cls-20"/></g><g id="_Group_6-10" class="cls-19" data-name="Group 6"><path d="M475.26,58.48a5,5,0,0,1,0-4.56l3-5.26a5,5,0,0,1,3.93-2.27h6.06a5,5,0,0,1,3.93,2.27l3,5.26a5,5,0,0,1,0,4.56l-3,5.23A5.06,5.06,0,0,1,488.29,66h-6.06a5.06,5.06,0,0,1-3.93-2.27Z" class="cls-20"/></g><g id="_Group_6-11" class="cls-19" data-name="Group 6"><path d="M162.33,86.6a5.08,5.08,0,0,1,0-4.56l3-5.26a5.06,5.06,0,0,1,3.94-2.27h6.05a5.06,5.06,0,0,1,3.94,2.27l3,5.26a5.08,5.08,0,0,1,0,4.56l-3,5.23a5,5,0,0,1-3.94,2.27h-6.05a5,5,0,0,1-3.94-2.27Z" class="cls-20"/></g><g id="_Group_6-12" class="cls-19" data-name="Group 6"><path d="M298.16,38.89a5,5,0,0,1,0-4.56l3-5.25a5,5,0,0,1,3.93-2.27h6.06a5,5,0,0,1,3.93,2.27l3,5.25a5,5,0,0,1,0,4.56l-3,5.24a5,5,0,0,1-3.93,2.26h-6.06a5,5,0,0,1-3.93-2.26Z" class="cls-20"/></g><g id="_Group_6-13" class="cls-19" data-name="Group 6"><path d="M168.9,382.35a5.08,5.08,0,0,1,0-4.56l3-5.26a5.06,5.06,0,0,1,3.94-2.27h6.06a5,5,0,0,1,3.93,2.27l3,5.26a5.08,5.08,0,0,1,0,4.56l-3,5.23a5.06,5.06,0,0,1-3.93,2.27h-6.06a5.09,5.09,0,0,1-3.94-2.27Z" class="cls-20"/></g><g id="_Group_6-14" class="cls-19" data-name="Group 6"><path d="M15.77,364.08a5,5,0,0,1,0-4.56l3-5.26A5,5,0,0,1,22.74,352H28.8a5,5,0,0,1,3.93,2.26l3,5.26a5,5,0,0,1,0,4.56l-3,5.23a5,5,0,0,1-3.93,2.27H22.74a5,5,0,0,1-3.93-2.27Z" class="cls-20"/></g><g id="_Group_6-15" class="cls-21" data-name="Group 6"><path d="M332.47,399.45a5,5,0,0,1,0-4.56l3-5.25a5.06,5.06,0,0,1,3.94-2.27h6.06a5,5,0,0,1,3.93,2.27l3,5.25a5.08,5.08,0,0,1,0,4.56l-3,5.24A5,5,0,0,1,345.5,407h-6.06a5.08,5.08,0,0,1-3.94-2.26Z" class="cls-6"/></g><g id="_Group_6-16" class="cls-21" data-name="Group 6"><path d="M190.07,233.13a5.08,5.08,0,0,1,0-4.56l3-5.25a5,5,0,0,1,3.94-2.27h6a5,5,0,0,1,3.94,2.27l3,5.25a5.08,5.08,0,0,1,0,4.56l-3,5.24a5.07,5.07,0,0,1-3.94,2.26h-6a5,5,0,0,1-3.94-2.26Z" class="cls-6"/></g><g id="_Group_6-17" class="cls-21" data-name="Group 6"><path d="M57.4,188.31a5.08,5.08,0,0,1,0-4.56l3-5.25a5,5,0,0,1,3.94-2.27h6.05a5,5,0,0,1,3.94,2.27l3,5.25a5.08,5.08,0,0,1,0,4.56l-3,5.24a5.07,5.07,0,0,1-3.94,2.26H64.38a5,5,0,0,1-3.94-2.26Z" class="cls-6"/></g><g id="_Group_6-18" class="cls-21" data-name="Group 6"><path d="M341.09,147.74a5.08,5.08,0,0,1,0-4.56l3-5.25a5,5,0,0,1,3.94-2.27h6.05a5,5,0,0,1,3.94,2.27l3,5.25a5.08,5.08,0,0,1,0,4.56l-3,5.24a5.07,5.07,0,0,1-3.94,2.26h-6.05a5,5,0,0,1-3.94-2.26Z" class="cls-6"/></g><g id="_Group_6-19" class="cls-21" data-name="Group 6"><path d="M173.41,120.3a5,5,0,0,1,0-4.56l3-5.26a5.06,5.06,0,0,1,3.93-2.27h6.06a5.06,5.06,0,0,1,3.93,2.27l3,5.26a5,5,0,0,1,0,4.56l-3,5.23a5,5,0,0,1-3.93,2.27h-6.06a5,5,0,0,1-3.93-2.27Z" class="cls-6"/></g><g id="_Group_6-20" class="cls-21" data-name="Group 6"><path d="M480,274.39a5.08,5.08,0,0,1,0-4.56l3-5.26A5.06,5.06,0,0,1,487,262.3h6.05a5.06,5.06,0,0,1,3.94,2.27l3,5.26a5.08,5.08,0,0,1,0,4.56l-3,5.23a5,5,0,0,1-3.94,2.27H487a5,5,0,0,1-3.94-2.27Z" class="cls-6"/></g><g id="_Group_6-21" class="cls-19" data-name="Group 6"><path d="M122.17,209.93a11.61,11.61,0,0,1,0-10.43l7-12a11.53,11.53,0,0,1,9-5.18H152a11.53,11.53,0,0,1,9,5.18l7,12a11.61,11.61,0,0,1,0,10.43l-7,12a11.55,11.55,0,0,1-9,5.19H138.14a11.55,11.55,0,0,1-9-5.19Z" class="cls-20"/></g><g id="_Group_6-22" class="cls-19" data-name="Group 6"><path d="M292.19,216.22a11.63,11.63,0,0,1,0-10.44l7-12a11.56,11.56,0,0,1,9-5.19H322a11.56,11.56,0,0,1,9,5.19l7,12a11.57,11.57,0,0,1,0,10.44l-7,12a11.56,11.56,0,0,1-9,5.19H308.16a11.56,11.56,0,0,1-9-5.19Z" class="cls-20"/></g><g id="_Group_6-23" class="cls-19" data-name="Group 6"><path d="M439.16,167.94a11.57,11.57,0,0,1,0-10.44l6.95-12a11.58,11.58,0,0,1,9-5.19H469a11.55,11.55,0,0,1,9,5.19l7,12a11.63,11.63,0,0,1,0,10.44l-7,12a11.55,11.55,0,0,1-9,5.19H455.12a11.58,11.58,0,0,1-9-5.19Z" class="cls-20"/></g><g id="_Group_6-24" class="cls-19" data-name="Group 6"><path d="M355.68,367.9a8.48,8.48,0,0,1-.29-7.65l4.77-9a8.48,8.48,0,0,1,6.46-4.06l10.17-.38a8.45,8.45,0,0,1,6.75,3.55L389,359a8.51,8.51,0,0,1,.29,7.65l-4.77,9a8.48,8.48,0,0,1-6.47,4.06l-10.17.39a8.48,8.48,0,0,1-6.75-3.56Z" class="cls-20"/></g><g id="_Group_6-25" class="cls-19" data-name="Group 6"><path d="M26.83,83.3a8.54,8.54,0,0,1-.29-7.66l4.77-9a8.47,8.47,0,0,1,6.46-4.06l10.17-.39a8.49,8.49,0,0,1,6.76,3.56l5.44,8.63A8.54,8.54,0,0,1,60.43,82l-4.77,9a8.47,8.47,0,0,1-6.47,4.06L39,95.45a8.48,8.48,0,0,1-6.76-3.56Z" class="cls-20"/></g></g><path d="M453.61,91.41a22.85,22.85,0,0,1,.83,33.08" class="cls-22"/><path d="M459.18,129.24a29.54,29.54,0,0,0-1.07-42.81" class="cls-22"/><path d="M449.09,96.41a16.08,16.08,0,0,1,.6,23.33" class="cls-22"/><path d="M454.44,124.49a22.85,22.85,0,0,0-.83-33.08" class="cls-22"/><path d="M395.08,91.41a22.84,22.84,0,0,0-.82,33.08" class="cls-22"/><path d="M389.51,129.24a29.54,29.54,0,0,1,1.07-42.81" class="cls-22"/><path d="M399.6,96.41a16.08,16.08,0,0,0-.6,23.33" class="cls-22"/><path d="M394.26,124.49a22.84,22.84,0,0,1,.82-33.08" class="cls-22"/><path d="M413.55,118.9h8.29a.64.64,0,0,1,.59.67V123a.63.63,0,0,1-.59.66h-8.29A.63.63,0,0,1,413,123v-3.39A.63.63,0,0,1,413.55,118.9Z" class="cls-17"/><path d="M426.89,118.9h8.3a.63.63,0,0,1,.58.67V123a.63.63,0,0,1-.58.66h-8.3a.63.63,0,0,1-.58-.66v-3.39A.63.63,0,0,1,426.89,118.9Z" class="cls-16"/></g></g></svg>