<svg xmlns="http://www.w3.org/2000/svg" xmlns:xlink="http://www.w3.org/1999/xlink" viewBox="0 0 521.57 439.37"><defs><style>.cls-1,.cls-12,.cls-4,.cls-8{fill:none}.cls-11,.cls-15,.cls-2{fill:#fff}.cls-2,.cls-3,.cls-4,.cls-8{stroke:#6738b8}.cls-11,.cls-12,.cls-15,.cls-2,.cls-4{stroke-linecap:round;stroke-linejoin:round}.cls-11,.cls-12,.cls-15,.cls-2,.cls-3,.cls-4,.cls-8{stroke-width:2.5px}.cls-3{fill:#fcfdff}.cls-3,.cls-8{stroke-miterlimit:10}.cls-5,.cls-9{fill:#f88298}.cls-13,.cls-6{fill:#9e62dd}.cls-7{fill:#6738b8}.cls-13,.cls-9{opacity:.1;isolation:isolate}.cls-10{clip-path:url(#clip-path)}.cls-11,.cls-12{stroke:#f88298}.cls-14{clip-path:url(#clip-path-2)}.cls-15{stroke:#9e62dd}.cls-16{opacity:.2}.cls-17{opacity:.3}.cls-18{fill:#bddef4}</style><clipPath id="clip-path"><rect width="246.37" height="108.79" x="71.95" y="70.98" class="cls-1"/></clipPath><clipPath id="clip-path-2"><rect width="246.37" height="108.79" x="201.6" y="230.62" class="cls-1"/></clipPath></defs><title>spw-mobile3 copy 2</title><g id="TRAVEL"><g id="spw-travel3"><g id="Layer_80" data-name="Layer 80"><path d="M336.08,49.55A20.42,20.42,0,0,0,315.72,29.2H75.88A20.41,20.41,0,0,0,55.51,49.55V229.11a20.43,20.43,0,0,0,20.37,20.36H315.72a20.43,20.43,0,0,0,20.36-20.36Z" class="cls-2"/><path d="M32.28,229.11a20.43,20.43,0,0,0,20.37,20.36H338.94a20.42,20.42,0,0,0,20.35-20.36Z" class="cls-3"/><line x1="115.59" x2="336.02" y1="52.99" y2="52.99" class="cls-4"/><path d="M102.66,53A2.65,2.65,0,1,1,100,50.34,2.65,2.65,0,0,1,102.66,53Z" class="cls-5"/><path d="M90,53a2.65,2.65,0,1,1-2.65-2.65A2.64,2.64,0,0,1,90,53Z" class="cls-6"/><path d="M77.25,53a2.65,2.65,0,1,1-2.65-2.65A2.65,2.65,0,0,1,77.25,53Z" class="cls-7"/><path d="M170.05,229.11h0a7,7,0,0,0,7,7h37.48a7,7,0,0,0,7-7h0" class="cls-8"/><rect width="246.37" height="108.79" x="71.95" y="70.98" class="cls-9"/><g class="cls-10"><path d="M103.16,140.88a32.55,32.55,0,1,1,65.1,0" class="cls-2"/><line x1="69.42" x2="320.43" y1="141.23" y2="141.23" class="cls-11"/><line x1="85.65" x2="116.59" y1="150.55" y2="150.55" class="cls-11"/><line x1="127.93" x2="142.2" y1="150.55" y2="150.55" class="cls-11"/><line x1="125.96" x2="156.9" y1="159.37" y2="159.37" class="cls-11"/><line x1="96.36" x2="115.25" y1="159.37" y2="159.37" class="cls-11"/><line x1="105.87" x2="124.76" y1="168.38" y2="168.38" class="cls-11"/><line x1="135.71" x2="145.15" y1="168.38" y2="168.38" class="cls-11"/><path d="M253.14,119.51c8,24.9,33.36,50.05,52.46,65.75H274.52s-26.44-22-29.36-65.75Z" class="cls-2"/><line x1="247.36" x2="260.38" y1="135.35" y2="135.35" class="cls-2"/><line x1="252.54" x2="272.32" y1="152.39" y2="152.39" class="cls-2"/><line x1="261.43" x2="287.94" y1="169.42" y2="169.42" class="cls-2"/><path d="M287.12,136.33c4.36-12.42-3.8-27.88-21.95-25.52,12.25-9.3,27.26-2.58,42.07,12.65-6.72-47.71-47.05-20.16-47.15-20.16,1.05-8.4,14.23-17.85,32.69-15.75-11.67-9.07-31.8-14.27-40.22,11,0,0-6.05-11.89,3.86-20.12-14,1.82-15.53,12.88-13.56,21.15-16.08-25.22-40.26-8.24-43.4,1.16,9.74-5.23,29-6.19,35.59,5-18.6-6.41-44.09-2.91-41.36,35.45,8.87-15.85,20.78-27.79,37.93-25.83-14.39,4.42-17.23,23.93-9.63,35.47,4.36-15.84,17.2-33.69,26.93-32.6C259.43,115.49,278,122.89,287.12,136.33Z" class="cls-2"/><ellipse cx="240.51" cy="120.42" class="cls-11" rx="9.35" ry="7.86" transform="translate(103.17 351.69) rotate(-85.89)"/><ellipse cx="258.07" cy="117.73" class="cls-11" rx="7.86" ry="9.35" transform="translate(-24.99 99.38) rotate(-20.81)"/><line x1="153.45" x2="167.72" y1="168.38" y2="168.38" class="cls-11"/><line x1="166.69" x2="176.14" y1="159.37" y2="159.37" class="cls-11"/><line x1="151.19" x2="186.24" y1="150.55" y2="150.55" class="cls-11"/></g><line x1="165.27" x2="73.7" y1="196.74" y2="196.74" class="cls-4"/><line x1="182.77" x2="73.7" y1="210.33" y2="210.33" class="cls-4"/><rect width="57.25" height="14.69" x="261.07" y="196.74" class="cls-12"/></g><g id="Layer_80_copy" data-name="Layer 80 copy"><path d="M465.73,209.2a20.42,20.42,0,0,0-20.35-20.36H205.54a20.42,20.42,0,0,0-20.37,20.36V388.76a20.42,20.42,0,0,0,20.37,20.36H445.38a20.43,20.43,0,0,0,20.35-20.36Z" class="cls-2"/><path d="M161.94,388.76a20.42,20.42,0,0,0,20.37,20.36H468.59A20.43,20.43,0,0,0,489,388.76Z" class="cls-3"/><line x1="245.25" x2="465.67" y1="212.64" y2="212.64" class="cls-4"/><path d="M232.31,212.64a2.65,2.65,0,1,1-2.65-2.65A2.65,2.65,0,0,1,232.31,212.64Z" class="cls-5"/><path d="M219.61,212.64A2.65,2.65,0,1,1,217,210,2.65,2.65,0,0,1,219.61,212.64Z" class="cls-6"/><path d="M206.9,212.64a2.65,2.65,0,1,1-2.65-2.65A2.65,2.65,0,0,1,206.9,212.64Z" class="cls-7"/><path d="M299.7,388.76h0a7,7,0,0,0,7,7h37.48a7,7,0,0,0,7-7h0" class="cls-8"/><rect width="246.37" height="108.79" x="201.6" y="230.62" class="cls-13"/><g class="cls-14"><path d="M195.79,278.64l39.36-39.35,30.77,42.25L292.73,254,336,314c41,9.62,43.55-36.07,120.51-36.41" class="cls-4"/></g><polyline points="236.61 302.54 236.61 291.07 244.02 291.07 244.02 297.11" class="cls-2"/><line x1="294.92" x2="203.35" y1="356.39" y2="356.39" class="cls-4"/><line x1="312.42" x2="203.35" y1="369.98" y2="369.98" class="cls-4"/><rect width="57.25" height="14.69" x="390.72" y="356.39" class="cls-12"/><polygon points="251.51 261.75 241.66 273.47 230.65 259.82 220.53 267.97 214.62 259.82 235.15 239.29 251.51 261.75" class="cls-15"/><polygon points="292.73 254 305.67 271.94 294.92 269.07 287.46 276.33 279.76 267.32 292.73 254" class="cls-15"/><line x1="421.38" x2="421.38" y1="314.58" y2="326.62" class="cls-4"/><polygon points="408.3 289.04 421.38 271.34 434.46 289.04 408.3 289.04" class="cls-15"/><polygon points="405.3 301.73 437.46 301.73 430.46 289.04 412.3 289.04 405.3 301.73" class="cls-15"/><polygon points="402.3 314.42 440.46 314.42 433.46 301.73 409.3 301.73 402.3 314.42" class="cls-15"/><line x1="385.85" x2="385.85" y1="300.6" y2="310.19" class="cls-4"/><polygon points="375.43 280.25 385.85 266.15 396.27 280.25 375.43 280.25" class="cls-15"/><polygon points="373.04 290.36 398.66 290.36 393.08 280.25 378.61 280.25 373.04 290.36" class="cls-15"/><polygon points="370.65 300.47 401.05 300.47 395.47 290.36 376.22 290.36 370.65 300.47" class="cls-15"/><circle cx="374.23" cy="247.04" r="9.25" class="cls-2"/><path d="M366.72,248.8a7.7,7.7,0,0,0-2.41.39,9.62,9.62,0,0,0-19,0,7.76,7.76,0,1,0-2.41,15.14h23.85a7.77,7.77,0,1,0,0-15.53Z" class="cls-15"/><polygon points="255.98 288.25 231.76 306.18 231.76 332.13 280.2 332.13 280.2 306.18 255.98 288.25" class="cls-2"/><polyline points="224.1 311.12 255.98 288.25 286.74 311.12" class="cls-4"/><rect width="10.24" height="18.04" x="262.79" y="314.1" class="cls-2"/><rect width="16.66" height="10.68" x="238.76" y="314.1" class="cls-2"/><path d="M255.42,304h-6.17a6.17,6.17,0,0,1,12.34,0Z" class="cls-2"/><line x1="289.69" x2="299.11" y1="332.13" y2="332.13" class="cls-2"/><line x1="390.02" x2="399.43" y1="332.13" y2="332.13" class="cls-2"/><line x1="305.67" x2="309.09" y1="332.13" y2="332.13" class="cls-2"/><line x1="376.04" x2="379.46" y1="314.58" y2="314.58" class="cls-2"/><line x1="395.46" x2="404.87" y1="326.62" y2="326.62" class="cls-2"/><line x1="411.44" x2="414.85" y1="326.62" y2="326.62" class="cls-2"/><line x1="317.85" x2="302.9" y1="326.62" y2="326.62" class="cls-2"/><line x1="296.33" x2="294.92" y1="326.62" y2="326.62" class="cls-2"/><line x1="394.03" x2="392.62" y1="310.19" y2="310.19" class="cls-2"/><line x1="215.02" x2="213.6" y1="326.62" y2="326.62" class="cls-2"/><line x1="219.82" x2="223.24" y1="332.13" y2="332.13" class="cls-2"/></g><g id="Layer_82" data-name="Layer 82"><g id="_Group_6" class="cls-16" data-name="Group 6"><path d="M384.71,83.06a5.08,5.08,0,0,1,0-4.56l3-5.26A5,5,0,0,1,391.68,71h6.06a5,5,0,0,1,3.93,2.26l3,5.26a5,5,0,0,1,0,4.56l-3,5.23a5,5,0,0,1-3.93,2.27h-6.06a5,5,0,0,1-3.93-2.27Z" class="cls-5"/></g><g id="_Group_6-2" class="cls-17" data-name="Group 6"><path d="M466.21,41.28a5.08,5.08,0,0,1,0-4.56l3-5.26a5.08,5.08,0,0,1,3.94-2.26h6.05a5,5,0,0,1,3.94,2.26l3,5.26a5.08,5.08,0,0,1,0,4.56l-3,5.23a5,5,0,0,1-3.94,2.27h-6.05a5.06,5.06,0,0,1-3.94-2.27Z" class="cls-18"/></g><g id="_Group_6-3" class="cls-16" data-name="Group 6"><path d="M173.53,295.12a5.06,5.06,0,0,1,0-4.55l3-5.26a5,5,0,0,1,3.94-2.27h6.05a5,5,0,0,1,3.94,2.27l3,5.26a5.06,5.06,0,0,1,0,4.55l-3,5.24a5.07,5.07,0,0,1-3.94,2.26h-6.05a5,5,0,0,1-3.94-2.26Z" class="cls-5"/></g><g id="_Group_6-4" class="cls-17" data-name="Group 6"><path d="M51.4,388.75a5.08,5.08,0,0,1,0-4.56l3-5.26a5,5,0,0,1,3.94-2.26h6.05a5,5,0,0,1,3.94,2.26l3,5.26a5.08,5.08,0,0,1,0,4.56l-3,5.23a5,5,0,0,1-3.94,2.27H58.38A5,5,0,0,1,54.44,394Z" class="cls-18"/></g><g id="_Group_6-5" class="cls-16" data-name="Group 6"><path d="M450.77,163.11a5.08,5.08,0,0,1,0-4.56l3-5.25a5,5,0,0,1,3.93-2.27h6.06a5.06,5.06,0,0,1,3.94,2.27l3,5.25a5,5,0,0,1,0,4.56l-3,5.23a5.06,5.06,0,0,1-3.94,2.27h-6.06a5,5,0,0,1-3.93-2.27Z" class="cls-5"/></g><g id="_Group_6-6" class="cls-16" data-name="Group 6"><path d="M65,282.79a5,5,0,0,1,0-4.56L68,273a5.06,5.06,0,0,1,3.94-2.27H78A5,5,0,0,1,81.92,273l3,5.25a5.08,5.08,0,0,1,0,4.56l-3,5.23A5,5,0,0,1,78,290.29H71.93A5.06,5.06,0,0,1,68,288Z" class="cls-5"/></g><g id="_Group_6-7" class="cls-17" data-name="Group 6"><path d="M119.39,322.92a11.61,11.61,0,0,1,0-10.43l7-12a11.55,11.55,0,0,1,9-5.19h13.86a11.54,11.54,0,0,1,9,5.19l7,12a11.54,11.54,0,0,1,0,10.43l-7,12a11.53,11.53,0,0,1-9,5.18H135.36a11.53,11.53,0,0,1-9-5.18Z" class="cls-18"/></g><g id="_Group_6-8" class="cls-17" data-name="Group 6"><path d="M319.43,57.48a8.48,8.48,0,0,1-.3-7.65l4.77-9a8.51,8.51,0,0,1,6.47-4.06l10.17-.38a8.47,8.47,0,0,1,6.75,3.55l5.44,8.64A8.48,8.48,0,0,1,353,56.2l-4.77,9a8.47,8.47,0,0,1-6.46,4.06l-10.17.39a8.49,8.49,0,0,1-6.76-3.56Z" class="cls-18"/></g><g id="_Group_6-9" class="cls-17" data-name="Group 6"><path d="M385.41,129.62a11.54,11.54,0,0,1,0-10.43l6.95-12a11.58,11.58,0,0,1,9-5.19h13.86a11.55,11.55,0,0,1,9,5.19l7,12a11.61,11.61,0,0,1,0,10.43l-7,12a11.55,11.55,0,0,1-9,5.19H401.37a11.58,11.58,0,0,1-9-5.19Z" class="cls-18"/></g></g></g></g></svg>