<svg xmlns="http://www.w3.org/2000/svg" xmlns:xlink="http://www.w3.org/1999/xlink" width="37" height="37" version="1.1" viewBox="0 0 37 37"><title>linkedin</title><desc>Created with Sketch.</desc><g id="Pages" fill="none" fill-rule="evenodd" stroke="none" stroke-width="1"><g id="Blog---Single" transform="translate(-419.000000, -1028.000000)"><g id="linkedin" transform="translate(420.000000, 1029.000000)"><g id="linkedin-(1)" fill="#28D1B1" fill-rule="nonzero" transform="translate(11.000000, 11.000000)"><rect id="Rectangle" width="3" height="9" x="0" y="4"/><path id="Path" d="M10.8105455,4.10554545 C10.7794545,4.09572727 10.75,4.08509091 10.7172727,4.07609091 C10.678,4.06709091 10.6387273,4.05972727 10.5986364,4.05318182 C10.4431818,4.02209091 10.273,4 10.0733636,4 C8.36663636,4 7.28418182,5.24118182 6.92745455,5.72063636 L6.92745455,4 L4,4 L4,13 L6.92745455,13 L6.92745455,8.09090909 C6.92745455,8.09090909 9.13981818,5.00963636 10.0733636,7.27272727 C10.0733636,9.29281818 10.0733636,13 10.0733636,13 L13,13 L13,6.92663636 C13,5.56681818 12.0680909,4.43363636 10.8105455,4.10554545 Z"/><circle id="Oval" cx="1.5" cy="1.5" r="1.5"/></g><circle id="Oval-Copy-2" cx="17.5" cy="17.5" r="17.5" stroke="#28D1B1" stroke-width="2"/></g></g></g></svg>